<svg width="1070" height="291" viewBox="300 2056 1070 291" xmlns="http://www.w3.org/2000/svg" xmlns:xlink="http://www.w3.org/1999/xlink"><g><g transform="translate(310.25091552734375, 2066.098388671875)  rotate(0)  "><g><path d="M57.43449166520911 90.96968335266597 C66.16485879285493 130.2139521520803, 75.95219661497933 178.45651021964792, 74.14270742236084 223.9547465835136 C75.09985632522411 218.4894366961342, 560.1729715972953 157.0447966307941, 953.4125616424711 270.697021283465 C977.5683586718961 222.82538171709567, 1016.3141004920889 171.37940494457615, 1049.4848022460938 121.91175252023943 C1043.901880735904 124.707534149772, 806.8120303584604 32.75961786899387, 497.0694187752643 40.93569916680251 C175.3901143000531 39.40919000949629, 52.40236487566906 96.37742546479589, 57.43449166520911 90.96968335266597 C57.43449166520911 90.96968335266597, 57.43449166520911 90.96968335266597, 57.43449166520911 90.96968335266597" stroke="none" stroke-width="0" fill="#0693E3" vector-effect="non-scaling-stroke" data-shape-part="fill" stroke-opacity="0.88" fill-opacity="0.88"></path></g><g><path d="M5.221317424109919 59.370588971704464 C10.28617319335251 109.6978846229643, 22.296482269100707 173.9889120884888, 22.973796666083643 208.81419963211243 M5.221317424109919 59.370588971704464 C7.169078059729081 117.06244953171179, 16.43856344950143 171.20618016225325, 22.973796666083643 208.81419963211243 M22.973796666083643 208.81419963211243 C20.403521988956044 207.08526000574653, 527.6198285570971 130.3414517022251, 921.0403936129896 261.48155140670553 M22.973796666083643 208.81419963211243 C29.32324202977658 204.8913504539845, 529.0118554514504 122.47166903182406, 921.0403936129896 261.48155140670553 M921.0403936129896 261.48155140670553 C955.7804458120294 213.12792544390865, 989.9974364365241 161.06650313194996, 1019.2011611862562 94.26270952237239 M921.0403936129896 261.48155140670553 C942.4539789453933 221.07549882658802, 966.4934213186701 178.53360770781268, 1019.2011611862562 94.26270952237239 M1019.2011611862562 94.26270952237239 C1014.7390976688347 93.99466006991854, 773.9169133076806 4.632924942553075, 455.298879382385 3.4115277111992475 M1019.2011611862562 94.26270952237239 C1013.4466394257254 97.94280694158216, 771.5145553827648 2.41353132954988, 455.298879382385 3.4115277111992475 M455.298879382385 3.4115277111992475 C133.53266062862917 4.16027587673368, 11.113702582797824 54.69458399194499, 5.221317424109993 59.37058897170444 M455.298879382385 3.4115277111992475 C138.913891393279 1.150516287635286, 9.808577214225053 56.187917615689535, 5.221317424109993 59.37058897170444 M5.221317424109993 59.37058897170444 C5.221317424109967 59.37058897170447, 5.221317424109958 59.37058897170447, 5.221317424109919 59.370588971704464 M5.221317424109993 59.37058897170444 C5.221317424109974 59.37058897170446, 5.221317424109951 59.370588971704464, 5.221317424109919 59.370588971704464" stroke="#000000" stroke-width="3" fill="none" vector-effect="non-scaling-stroke" stroke-opacity="1" fill-opacity="0.88" data-shape-part="outline"></path></g></g><g transform="translate(362.46408976844293, 2052.931550718454) rotate(2.6040513927960003)"><text transform="translate(0, 25)" style="font-size: 118px; font-family: &quot;Source Code Pro&quot;; fill: rgb(255, 255, 255); opacity: 1; stroke-width: 0; font-style: normal; font-weight: normal; text-decoration: none;"><tspan dominant-baseline="text-before-edge" x="151.3984375" y="0">Subscribe</tspan></text></g></g><defs><style>@import url("https://fonts.googleapis.com/css2?family=Source+Code+Pro&amp;display=swap");text {white-space: pre;};
</style></defs></svg>