<svg width="612" height="218" viewBox="460 2629 612 218" xmlns="http://www.w3.org/2000/svg" xmlns:xlink="http://www.w3.org/1999/xlink"><g><g transform="translate(470.265625, 2639.165)  rotate(0)  "><g fill="none" stroke="#000" stroke-linecap="round" stroke-linejoin="round" stroke-miterlimit="10"><g><path d="M1.7833112582781458 21.20885262282149 C4.228888878434255 17.286155178375104, 14.599606148421715 53.606030974486714, 140.98649006622517 53.638420861724896 C273.0403554222035 60.93181288684757, 400.2894715394551 56.77586954171558, 439.7086092715232 46.880489865675564 C475.03988241725284 42.47366304868856, 516.2429915004049 38.235917151762116, 526.2516556291391 19.76376046014428 C522.5556065693979 23.37959769272655, 517.0422327867553 93.02283869111268, 524.1186754966888 126.5730723662573 C520.2087564718711 128.87182539368897, 473.47083086259977 157.05796172647527, 256.482119205298 154.32734243179326 C37.21325525432891 145.96535552783388, 4.418360761568511 119.87049872276785, 8.776688741721774 124.32042870090754 C7.80671396033522 121.46775639054776, 9.430005960999999 49.30334481025987, 1.7833112582780644 21.2088526228215 C1.7833112582780788 21.2088526228215, 1.7833112582781192 21.208852622821503, 1.7833112582781458 21.20885262282149" stroke="none" stroke-width="0" fill="#8ED1FC" vector-effect="non-scaling-stroke" data-shape-part="fill" stroke-opacity="0.52" fill-opacity="0.52"></path><path d="M1.7833112582781458 21.20885262282149 C-0.9978147221512055 23.476651317603448, 11.638742839813183 51.773261132040865, 140.98649006622517 53.638420861724896 M1.7833112582781458 21.20885262282149 C5.189907505152106 20.21628547573977, 14.11919023826527 49.749631812792146, 140.98649006622517 53.638420861724896 M140.98649006622517 53.638420861724896 C269.0288488960313 55.100288030459, 400.3531288068468 53.57582380558153, 439.7086092715232 46.880489865675564 M140.98649006622517 53.638420861724896 C267.4803937325208 56.12109021432736, 401.3953463166213 55.4572381300458, 439.7086092715232 46.880489865675564 M439.7086092715232 46.880489865675564 C480.25913311564045 42.12412491763034, 513.6878671892557 34.63029367257463, 526.2516556291391 19.76376046014428 M439.7086092715232 46.880489865675564 C478.8275576597048 41.14529144681082, 513.8173972603038 38.47635323376948, 526.2516556291391 19.76376046014428 M526.2516556291391 19.76376046014428 C527.2899734706168 22.404286429820953, 522.1922610706494 92.43813054138153, 524.1186754966888 126.5730723662573 M526.2516556291391 19.76376046014428 C526.3010887268947 18.548822217643632, 516.1792750591721 90.19037052607453, 524.1186754966888 126.5730723662573 M524.1186754966888 126.5730723662573 C526.4832723823178 124.02933856363326, 472.989057243246 160.9635819005852, 256.482119205298 154.32734243179326 M524.1186754966888 126.5730723662573 C526.4231432616978 123.73655711717821, 473.73585541169473 157.45797108929395, 256.482119205298 154.32734243179326 M256.482119205298 154.32734243179326 C44.065501808524786 149.5587731172003, 11.078817068800891 124.35690513697864, 8.776688741721774 124.32042870090754 M256.482119205298 154.32734243179326 C44.567947128145676 147.7967965372976, 11.707328585876713 125.43634590397069, 8.776688741721774 124.32042870090754 M8.776688741721774 124.32042870090754 C7.158696620926822 124.22276580778362, 6.889585352777514 52.6601653027063, 1.7833112582780644 21.2088526228215 M8.776688741721774 124.32042870090754 C6.892789104177247 121.70102478901336, 6.428868293431599 51.48699361599923, 1.7833112582780644 21.2088526228215 M1.7833112582780644 21.2088526228215 C1.7833112582780848 21.208852622821503, 1.7833112582780883 21.20885262282149, 1.7833112582781458 21.20885262282149 M1.7833112582780644 21.2088526228215 C1.7833112582780846 21.208852622821503, 1.7833112582781043 21.2088526228215, 1.7833112582781458 21.20885262282149" stroke="#000000" stroke-width="2" fill="none" vector-effect="non-scaling-stroke" stroke-opacity="1" fill-opacity="0.52" data-shape-part="outline"></path></g><g><path d="M25.840529801324504 20.613814673483812 C29.94018204864164 22.92744491892352, 30.27922000426207 21.536426245072796, 40.701456953642385 27.074226694864304 C55.44093065173298 31.547124138325678, 63.868434892402135 24.039460027911584, 60.073112582781455 19.63625232814334 C59.71198809574648 21.796138662793556, 44.597498311292604 6.133845428423271, 24.022251655629137 4.080260224029781 C-0.217935651913045 7.676468182205695, -1.9127378014630567 24.824689855403754, 1.7833112582781419 21.208852622821485 C-0.5376347629136338 24.423463674611902, 0.9504783261757286 31.625623387645746, 26.33006622516556 37.48739080827366 C23.373123614074604 28.036830315738683, 22.418267787870235 25.13498028719778, 25.8405298013245 20.613814673483812 C25.8405298013245 20.613814673483812, 25.8405298013245 20.613814673483812, 25.840529801324504 20.613814673483812" stroke="none" stroke-width="0" fill="#8ED1FC" vector-effect="non-scaling-stroke" data-shape-part="fill" stroke-opacity="0.52" fill-opacity="0.52"></path><path d="M25.840529801324504 20.613814673483812 C23.059403820895152 22.88161336826577, 26.744438204051594 26.484148285189583, 40.701456953642385 27.074226694864304 M25.840529801324504 20.613814673483812 C29.247126048198464 19.621247526402094, 29.224885602503683 24.460518965940864, 40.701456953642385 27.074226694864304 M40.701456953642385 27.074226694864304 C53.35308730662733 27.261012543589104, 59.77564536313816 18.596092926659505, 60.073112582781455 19.63625232814334 M40.701456953642385 27.074226694864304 C51.80463214311681 28.281814727457466, 60.81786287291265 20.477507251123782, 60.073112582781455 19.63625232814334 M60.073112582781455 19.63625232814334 C61.565623181865654 22.61538072148792, 45.83091354687162 1.520682062999592, 24.022251655629137 4.080260224029781 M60.073112582781455 19.63625232814334 C60.13404772592998 21.6365472506684, 45.96044361791969 5.366741624194445, 24.022251655629137 4.080260224029781 M24.022251655629137 4.080260224029781 C0.7585827421399374 7.995867513715762, 4.612393520980428 23.838755524880742, 1.7833112582781419 21.208852622821485 M24.022251655629137 4.080260224029781 C-0.23030200158221864 4.1404033015384405, -1.4005924904967588 21.590995509573748, 1.7833112582781419 21.208852622821485 M1.7833112582781419 21.208852622821485 C4.14790814390714 18.66511882019744, 6.286010885630169 31.117800812970664, 26.33006622516556 37.48739080827366 M1.7833112582781419 21.208852622821485 C4.0877790232871725 18.372337373742393, 7.0328090540789 27.6121900016794, 26.33006622516556 37.48739080827366 M26.33006622516556 37.48739080827366 C26.164035903813726 33.2566891152327, 24.706038411555244 26.522258381307473, 25.8405298013245 20.613814673483812 M26.33006622516556 37.48739080827366 C27.027419667084935 32.704099015272334, 25.449845470829352 25.31019422289605, 25.8405298013245 20.613814673483812 M25.8405298013245 20.613814673483812 C25.8405298013245 20.613814673483812, 25.840529801324504 20.613814673483812, 25.840529801324504 20.613814673483812 M25.8405298013245 20.613814673483812 C25.8405298013245 20.613814673483812, 25.8405298013245 20.613814673483812, 25.840529801324504 20.613814673483812" stroke="#000000" stroke-width="2" fill="none" vector-effect="non-scaling-stroke" stroke-opacity="1" fill-opacity="0.52" data-shape-part="outline"></path></g><g><path d="M60.73748344370861 46.54046818033974 C62.219350021346635 39.64002014504448, 55.75226047464595 29.706457550525915, 60.073112582781455 19.593749617476362 C62.930907020897706 23.389071927097042, 57.97247922294706 28.285702502507473, 40.701456953642385 27.031723984197328 C29.99352871875618 21.68988087954878, 29.169196325727306 20.675614120908524, 25.840529801324507 20.613814673483812 C23.74772486682695 29.25296615942009, 22.58693641054898 34.40635428334049, 26.365033112582786 37.52989351894063 C36.62950635928859 38.560404386943574, 41.68901684373297 40.34611952039618, 60.73748344370861 46.54046818033974 C60.73748344370861 46.54046818033974, 60.73748344370861 46.54046818033974, 60.73748344370861 46.54046818033974" stroke="none" stroke-width="0" fill="#8ED1FC" vector-effect="non-scaling-stroke" data-shape-part="fill" stroke-opacity="0.52" fill-opacity="0.52"></path><path d="M60.73748344370861 46.54046818033974 C61.31923808390544 43.91316600928051, 59.29339033166146 36.57474351551091, 60.073112582781455 19.593749617476362 M60.73748344370861 46.54046818033974 C60.43779610920381 38.711602754803444, 59.63921420506614 31.750460969310446, 60.073112582781455 19.593749617476362 M60.073112582781455 19.593749617476362 C60.720721530721626 20.325275637459356, 55.06178212226301 31.62595538288703, 40.701456953642385 27.031723984197328 M60.073112582781455 19.593749617476362 C57.20578898949838 18.116578250302346, 53.63020666632734 30.64712191206751, 40.701456953642385 27.031723984197328 M40.701456953642385 27.031723984197328 C25.778168651343925 27.644066822481744, 26.8788476428022 23.254340643160486, 25.840529801324507 20.613814673483812 M40.701456953642385 27.031723984197328 C31.087086986213592 28.44100931622035, 25.889962899080043 19.398876430983165, 25.840529801324507 20.613814673483812 M25.840529801324507 20.613814673483812 C23.825047793803197 25.327670883744887, 27.602031958483398 29.330698614634294, 26.365033112582786 37.52989351894063 M25.840529801324507 20.613814673483812 C27.241985626245253 24.334214185158608, 27.202804123917442 28.00119889080909, 26.365033112582786 37.52989351894063 M26.365033112582786 37.52989351894063 C37.47616479326238 39.209670735722774, 48.42493876456894 44.8331601935925, 60.73748344370861 46.54046818033974 M26.365033112582786 37.52989351894063 C32.861428266383825 40.562781781204414, 47.848215208674375 46.110393606873416, 60.73748344370861 46.54046818033974 M60.73748344370861 46.54046818033974 C60.73748344370861 46.54046818033974, 60.73748344370861 46.54046818033974, 60.73748344370861 46.54046818033974 M60.73748344370861 46.54046818033974 C60.73748344370861 46.54046818033974, 60.73748344370861 46.54046818033974, 60.73748344370861 46.54046818033974" stroke="#000000" stroke-width="2" fill="none" vector-effect="non-scaling-stroke" stroke-opacity="1" fill-opacity="0.52" data-shape-part="outline"></path></g><g><path d="M479.53589403973507 17.978646612131243 C491.18287993931483 32.39587580475533, 508.5095398247861 15.06111529602374, 510.5864900662251 19.12621980013962 C513.360810517927 25.21378415822053, 512.1269635353053 27.85474454470702, 510.76132450331124 31.111984208227117 C513.9369052045603 30.008453590092895, 526.1372646367918 28.319386364466368, 526.2516556291391 19.763760460144276 C530.6548633289074 19.402635973109298, 528.0269062021998 -0.751550352615038, 505.06172185430466 2.1676382440158264 C487.9347592396346 1.4218861887679746, 481.8570206779017 14.282597552390044, 479.53589403973507 17.978646612131243 C479.53589403973507 17.978646612131243, 479.53589403973507 17.978646612131243, 479.53589403973507 17.978646612131243" stroke="none" stroke-width="0" fill="#8ED1FC" vector-effect="non-scaling-stroke" data-shape-part="fill" stroke-opacity="0.52" fill-opacity="0.52"></path><path d="M479.53589403973507 17.978646612131243 C485.1118541520209 38.3100973403784, 509.49728588617074 20.15124439581002, 510.5864900662251 19.12621980013962 M479.53589403973507 17.978646612131243 C491.2995763793242 35.049731498514724, 511.97773328462284 18.127615076561302, 510.5864900662251 19.12621980013962 M510.5864900662251 19.12621980013962 C509.9286615605053 21.71615101723076, 510.39088672822203 26.533341978043275, 510.76132450331124 31.111984208227117 M510.5864900662251 19.12621980013962 C509.98545840790405 22.626675277177487, 510.80524048235554 27.420853225579304, 510.76132450331124 31.111984208227117 M510.76132450331124 31.111984208227117 C515.8041289162446 30.36424030516827, 524.3177880401532 27.164590024522365, 526.2516556291391 19.763760460144276 M510.76132450331124 31.111984208227117 C521.1130472511143 31.161182798906875, 523.3289032964311 23.309125812345044, 526.2516556291391 19.763760460144276 M526.2516556291391 19.763760460144276 C523.4830436736827 20.096058622537548, 528.2316167531786 0.4314559440643393, 505.06172185430466 2.1676382440158264 M526.2516556291391 19.763760460144276 C527.8911111939715 21.82333048081435, 528.1714876325586 0.13867449760929285, 505.06172185430466 2.1676382440158264 M505.06172185430466 2.1676382440158264 C486.4951463700888 -0.13093965738254298, 482.2006011462732 18.055386313573663, 479.53589403973507 17.978646612131243 M505.06172185430466 2.1676382440158264 C487.25354029137276 1.4020346428250272, 482.7030464658941 16.29340973367097, 479.53589403973507 17.978646612131243 M479.53589403973507 17.978646612131243 C479.53589403973507 17.978646612131243, 479.53589403973507 17.978646612131243, 479.53589403973507 17.978646612131243 M479.53589403973507 17.978646612131243 C479.53589403973507 17.978646612131243, 479.53589403973507 17.978646612131243, 479.53589403973507 17.978646612131243" stroke="#000000" stroke-width="2" fill="none" vector-effect="non-scaling-stroke" stroke-opacity="1" fill-opacity="0.52" data-shape-part="outline"></path></g><g><path d="M510.76132450331124 31.111984208227117 C508.43546258051305 25.80744270618765, 508.1252644987489 23.073871777292666, 510.5864900662251 19.12621980013962 C511.3845381197207 21.303810085567488, 492.35364802108415 40.18445360358055, 479.53589403973507 17.978646612131243 C481.598077480677 28.39570580532881, 483.44824803200333 37.504498757659476, 479.32609271523177 39.570023630955525 C491.13344504938874 39.349758168255036, 498.6075645364582 37.925873007322025, 510.76132450331124 31.111984208227117 C510.76132450331124 31.111984208227117, 510.76132450331124 31.111984208227117, 510.76132450331124 31.111984208227117" stroke="none" stroke-width="0" fill="#8ED1FC" vector-effect="non-scaling-stroke" data-shape-part="fill" stroke-opacity="0.52" fill-opacity="0.52"></path><path d="M510.76132450331124 31.111984208227117 C511.2035260691717 30.401868370657247, 510.0356313018506 26.86691685772489, 510.5864900662251 19.12621980013962 M510.76132450331124 31.111984208227117 C510.63774664902036 27.550224218652556, 510.21965717462075 24.506940978578328, 510.5864900662251 19.12621980013962 M510.5864900662251 19.12621980013962 C511.2340990141653 19.857745820122613, 489.38549073153445 39.063929749608, 479.53589403973507 17.978646612131243 M510.5864900662251 19.12621980013962 C507.71916647294205 17.649048432965603, 487.9539152755988 38.085096278788484, 479.53589403973507 17.978646612131243 M479.53589403973507 17.978646612131243 C482.3683224307753 25.80688090556096, 482.30913366952745 28.018846773690235, 479.32609271523177 39.570023630955525 M479.53589403973507 17.978646612131243 C480.36374964223484 22.424188076296918, 479.83870584916934 30.30857998649193, 479.32609271523177 39.570023630955525 M479.32609271523177 39.570023630955525 C493.49845454947507 34.72333683440561, 504.2233582906186 33.10618008419342, 510.76132450331124 31.111984208227117 M479.32609271523177 39.570023630955525 C494.55898270894255 37.278122490263605, 504.9817522119026 34.63915438440099, 510.76132450331124 31.111984208227117 M510.76132450331124 31.111984208227117 C510.76132450331124 31.111984208227117, 510.76132450331124 31.111984208227117, 510.76132450331124 31.111984208227117 M510.76132450331124 31.111984208227117 C510.76132450331124 31.111984208227117, 510.76132450331124 31.111984208227117, 510.76132450331124 31.111984208227117" stroke="#000000" stroke-width="2" fill="none" vector-effect="non-scaling-stroke" stroke-opacity="1" fill-opacity="0.52" data-shape-part="outline"></path></g></g></g><g transform="translate(480.75569122516555, 2668.9168959913327) rotate(0)"><text transform="translate(0, -5)" style="font-size: 94px; font-family: &quot;Permanent Marker&quot;; fill: rgb(17, 17, 17); opacity: 1; stroke-width: 0; font-style: normal; font-weight: normal; text-decoration: none;"><tspan dominant-baseline="text-before-edge" x="36.0234375" y="1.5">Subscribe</tspan></text></g></g><g><g transform="translate(961.765625, 2742.625) rotate(0) scale(1 0.9987462948578959)  "><g><path d="m0.98 0.23066c-0.55 0.45-0.98 1.33-0.98 2.03 0 1.84 9.52 18.92 18.89 33.92 2.74 4.4 6.66 10.68 8.67 13.94 3.55 5.74 15.63 24.88 21.16 33.48 3.34 5.2 5.98 8.77 7.16 9.67 1.98 1.51 4.45 0.95 5.55-1.26 1.61-3.19 0.05-23.42-3.19-41.91-0.43-2.44-0.73-4.5-0.65-4.57 0.18-0.2 3.64-0.58 7.99-0.88 6.13-0.43 23.54-2.91 28.47-4.05 4.07-0.93 5.95-2.39 5.95-4.57 0-2.81-2.59-4.72-11.56-8.54-9.65-4.12-22.03-8.49-38.31-13.52-5.8-1.81-12.81-3.99-15.58-4.87-2.76-0.88-7.84-2.46-11.31-3.52-3.44-1.06-8.72-2.71-11.68-3.69-4.83-1.58-5.66-1.79-7.79-1.86-1.68-0.08-2.51 0-2.79 0.2zm11.86 8.17c0.35 0.1 0.3 0.38-0.4 1.98-0.45 1.03-0.88 1.93-0.93 2.01-0.13 0.1-3.22-5.23-3.22-5.53 0-0.08 0.93 0.2 2.09 0.63 1.13 0.43 2.23 0.83 2.46 0.91zm6.43 2.08 0.75 0.28-0.85 1.63c-0.48 0.9-0.9 1.61-0.95 1.56-0.03-0.05-0.13-0.9-0.23-1.91-0.18-1.99-0.13-2.04 1.28-1.56zm23.59 7.34 1.86 0.53-0.95 0.43c-1.18 0.53-1.66 1.28-3.09 4.85-0.6 1.51-1.13 2.61-1.18 2.49-0.03-0.13 0.23-2.04 0.58-4.25 0.35-2.24 0.63-4.17 0.63-4.32-0.01-0.36-0.01-0.39 2.15 0.27zm5.71 1.71c0.93 0.28 1.68 0.6 1.68 0.7 0 0.7-0.68 2.29-1.33 3.14-0.45 0.58-1.26 2.06-1.78 3.27-0.53 1.21-1.01 2.16-1.06 2.11-0.05-0.03 0.15-1.53 0.4-3.32 0.63-4.12 0.63-4.82 0-5.85-0.48-0.78-0.48-0.83-0.08-0.7 0.26 0.07 1.21 0.37 2.17 0.65zm-28.52 6.53-0.08 1.38-1.36-2.21c-0.73-1.23-1.28-2.24-1.26-2.29 0.05-0.03 0.4-0.25 0.78-0.48s0.88-0.75 1.13-1.18l0.45-0.78 0.2 2.09c0.12 1.16 0.17 2.72 0.14 3.47zm3.82 6.15c0 1.33-0.2 1.41-0.83 0.33-0.45-0.78-0.45-0.83-0.03-1.13 0.73-0.53 0.86-0.4 0.86 0.8zm4.22 6.96-0.08 1.08-0.85-1.21-0.83-1.23 0.83-0.7 0.85-0.7 0.08 0.85c0.05 0.46 0.05 1.34 0 1.91zm16.66 14.05c-0.15 1.71-0.33 4.65-0.4 6.51-0.23 5-0.18 4.92-1.68 2.74-0.7-1.03-1.33-1.98-1.38-2.16-0.08-0.15 0.2-0.45 0.6-0.68 0.98-0.5 1.26-1.21 1.96-4.9 0.8-4.27 0.93-4.82 1.06-4.72 0.04 0.07-0.04 1.5-0.16 3.21zm4.67 19.17c-0.05 0.18-3.19-4.47-3.19-4.75 0-0.03 0.3-0.15 0.7-0.25 1.03-0.25 1.81-1.11 2.01-2.24 0.13-0.73 0.23 0.1 0.35 2.99 0.11 2.22 0.16 4.12 0.13 4.25zm5.98 5.28c0.2 2.49 0.33 4.55 0.28 4.62-0.05 0.05-0.68-0.8-1.38-1.88-1.23-1.93-1.26-1.96-0.78-2.46 0.68-0.73 1.01-1.73 1.01-3.09 0-1.23 0.3-2.71 0.43-2.06 0.01 0.19 0.22 2.4 0.44 4.87z" clip-rule="evenodd" fill-rule="evenodd" fill="#000" stroke="#000" stroke-width="2" vector-effect="non-scaling-stroke" stroke-opacity="1" fill-opacity="1" transform="scale(1 1)" data-target_data=""></path></g></g></g><defs><style>@import url("https://fonts.googleapis.com/css2?family=Permanent+Marker&amp;display=swap");text {white-space: pre;};
</style></defs></svg>