<svg width="1075" height="176" viewBox="1473 1856 1075 176" xmlns="http://www.w3.org/2000/svg" xmlns:xlink="http://www.w3.org/1999/xlink"><g><g transform="translate(1482.9781494140625, 1866.098388671875)  rotate(0)  "><g><path d="M1056.8587054163218 3.861462608585134 L-0.8301035016775131 2.53720237375237 L57.8041185861826 77.78414092957973 L-1.0622898191213608 149.80535547465087 L1055.729293718934 149.16330044001342 L1001.0906990343332 82.84674535691738" stroke="none" stroke-width="0" fill="#0693E3" fill-rule="evenodd" vector-effect="non-scaling-stroke" data-shape-part="fill" stroke-opacity="0.88" fill-opacity="0.88"></path><path d="M1054.5457763671875 4.463331848988309 C816.8727155706534 0.7766155224164206, 582.950972614934 4.2047052364667135, 0 4.463331848988309 M1054.5457763671875 4.463331848988309 C812.6581128778785 3.7300512455971355, 570.3770539855419 4.632816996482146, 0 4.463331848988309 M0 4.463331848988309 C7.780098401252381 19.87444374328215, 27.29556256812977 33.39755911165743, 58.000017700195315 78.0302734375 M0 4.463331848988309 C14.587153718799929 25.439023124648923, 27.108180363616555 44.50739624830008, 58.000017700195315 78.0302734375 M58.000017700195315 78.0302734375 C40.910116163317 100.74378825389687, 15.105319801882445 116.23396335471422, 0 151.59721428185702 M58.000017700195315 78.0302734375 C43.49529301127194 103.1393156930913, 18.817893005312477 125.28047747330152, 0 151.59721428185702 M0 151.59721428185702 C361.55409289091375 145.96885298716396, 725.1659067827374 145.27690485941736, 1054.5457763671875 151.59721428185702 M0 151.59721428185702 C333.35366467846285 154.6807042761796, 666.8687111946513 153.09676043233804, 1054.5457763671875 151.59721428185702 M1054.5457763671875 151.59721428185702 C1039.0448315162914 132.00659486220414, 1024.562631111423 109.3168395530299, 996.5457586669921 78.0302734375 M1054.5457763671875 151.59721428185702 C1034.571521546892 122.56813749368752, 1017.9450507145116 100.47917583648965, 996.5457586669921 78.0302734375 M996.5457586669921 78.0302734375 C1016.2541752915877 47.70339917164359, 1027.7475218169825 29.491864303173188, 1054.5457763671875 4.463331848988309 M996.5457586669921 78.0302734375 C1020.602778777585 48.92504377343772, 1047.4243300642033 21.121792748972496, 1054.5457763671875 4.463331848988309" stroke="#000000" stroke-width="3" fill="none" vector-effect="non-scaling-stroke" stroke-opacity="1" fill-opacity="0.88" data-shape-part="outline"></path></g></g><g transform="translate(1548.8872604370117, 1873.901416015625) rotate(0)"><text transform="translate(0, -4)" style="font-size: 118px; font-family: &quot;Source Code Pro&quot;; fill: rgb(255, 255, 255); opacity: 1; stroke-width: 0; font-style: normal; font-weight: normal; text-decoration: none;"><tspan dominant-baseline="text-before-edge" x="1.296875" y="0">Subscribe Now</tspan></text></g></g><defs><style>@import url("https://fonts.googleapis.com/css2?family=Source+Code+Pro&amp;display=swap");text {white-space: pre;};
</style></defs></svg>