<svg width="881" height="176" viewBox="1468 1856 881 176" xmlns="http://www.w3.org/2000/svg" xmlns:xlink="http://www.w3.org/1999/xlink"><g><g transform="translate(1478.4327392578125, 1866.098388671875)  rotate(0)  "><g><path d="M862.9192522913218 3.861462608585134 L-0.8301035016775131 2.53720237375237 L47.13744866430759 77.78414092957973 L-1.0622898191213608 149.80535547465087 L861.7898405939341 149.16330044001342 L817.8179158312082 82.84674535691738" stroke="none" stroke-width="0" fill="#0693E3" fill-rule="evenodd" vector-effect="non-scaling-stroke" data-shape-part="fill" stroke-opacity="0.88" fill-opacity="0.88"></path><path d="M860.6063232421875 4.463331848988309 C666.3904021806516 1.2274315370419602, 475.9257989599302 4.655521251092253, 0 4.463331848988309 M860.6063232421875 4.463331848988309 C663.3261706390757 3.7347493414855584, 465.6526226329364 4.637515092370569, 0 4.463331848988309 M0 4.463331848988309 C5.341413678308559 20.177422091492524, 22.418193122242126 33.7005374598678, 47.33334777832031 78.0302734375 M0 4.463331848988309 C11.902639831352397 25.210234137763422, 21.739152588721492 44.27860726141458, 47.33334777832031 78.0302734375 M47.33334777832031 78.0302734375 C33.51272890463169 100.94396229617485, 10.977215206386838 116.4341373969922, 0 151.59721428185702 M47.33334777832031 78.0302734375 C36.43470835387015 103.06262202754682, 15.363393612383902 125.20378380775705, 0 151.59721428185702 M0 151.59721428185702 C294.7092312857746 147.41914783768993, 591.476183572459 146.72719970994333, 860.6063232421875 151.59721428185702 M0 151.59721428185702 C271.93980859028335 154.32573918330587, 544.0409990182923 152.74179533946432, 860.6063232421875 151.59721428185702 M860.6063232421875 151.59721428185702 C847.985148301334 132.04648885678924, 836.3827178065078 109.356733547615, 813.2729754638672 78.0302734375 M860.6063232421875 151.59721428185702 C844.2329153424814 122.8655398590561, 831.2072914306904 100.77657820185823, 813.2729754638672 78.0302734375 M813.2729754638672 78.0302734375 C829.5243364899583 47.93115624445685, 837.5606274168485 29.71962137598645, 860.6063232421875 4.463331848988309 M813.2729754638672 78.0302734375 C833.0783537266668 48.956344282429114, 855.6482631654918 21.15309325796389, 860.6063232421875 4.463331848988309" stroke="#000000" stroke-width="3" fill="none" vector-effect="non-scaling-stroke" stroke-opacity="1" fill-opacity="0.88" data-shape-part="outline"></path></g></g><g transform="translate(1532.2206344604492, 1873.901416015625) rotate(0)"><text transform="translate(0, -4)" style="font-size: 118px; font-family: &quot;Source Code Pro&quot;; fill: rgb(255, 255, 255); opacity: 1; stroke-width: 0; font-style: normal; font-weight: normal; text-decoration: none;"><tspan dominant-baseline="text-before-edge" x="58.3984375" y="0">Subscribe</tspan></text></g></g><defs><style>@import url("https://fonts.googleapis.com/css2?family=Source+Code+Pro&amp;display=swap");text {white-space: pre;};
</style></defs></svg>