<svg width="753" height="176" viewBox="1473 1856 753 176" xmlns="http://www.w3.org/2000/svg" xmlns:xlink="http://www.w3.org/1999/xlink"><g><g transform="translate(1482.9781494140625, 1866.098388671875)  rotate(0)  "><g><path d="M735.6465472131968 3.861462608585134 L-0.8301035016775131 2.53720237375237 L40.137449885010724 77.78414092957973 L-1.0622898191213608 149.80535547465087 L734.5171355158091 149.16330044001342 L697.5452095323801 82.84674535691738" stroke="none" stroke-width="0" fill="#0693E3" fill-rule="evenodd" vector-effect="non-scaling-stroke" data-shape-part="fill" stroke-opacity="0.88" fill-opacity="0.88"></path><path d="M733.3336181640625 4.463331848988309 C567.636431377117 1.5232794047625677, 405.6905624309862 4.9513691188128615, 0 4.463331848988309 M733.3336181640625 4.463331848988309 C565.3271305414796 3.737832465433788, 396.92724751586917 4.640598216318798, 0 4.463331848988309 M0 4.463331848988309 C3.7410275963610706 20.37625153715453, 19.217420958347148 33.89936690552981, 40.33334899902344 78.0302734375 M0 4.463331848988309 C10.140928437564842 25.060091437122544, 18.21572980114638 44.12846456077371, 40.33334899902344 78.0302734375 M40.33334899902344 78.0302734375 C28.658195844169178 101.07532644842252, 8.26814786475867 116.56550154923987, 0 151.59721428185702 M40.33334899902344 78.0302734375 C31.801201894503976 103.0122918336697, 13.096379472948424 125.15345361387992, 0 151.59721428185702 M0 151.59721428185702 C250.84231189431074 148.37090337692177, 503.74234478953133 147.67895524917517, 733.3336181640625 151.59721428185702 M0 151.59721428185702 C231.63698486011936 154.09279345281942, 463.43535155796434 152.50884960897787, 733.3336181640625 151.59721428185702 M733.3336181640625 151.59721428185702 C722.602291320375 132.0726692781806, 712.8897089227149 109.38291396900635, 693.0002691650391 78.0302734375 M733.3336181640625 151.59721428185702 C719.323264922762 123.06071006773303, 708.6606956693764 100.97174841053516, 693.0002691650391 78.0302734375 M693.0002691650391 78.0302734375 C706.9829385425899 48.08062175181258, 712.75053782094 29.869086883342177, 733.3336181640625 4.463331848988309 M693.0002691650391 78.0302734375 C710.0155088032689 48.97688523160406, 729.7952796175241 21.173634207138832, 733.3336181640625 4.463331848988309" stroke="#000000" stroke-width="3" fill="none" vector-effect="non-scaling-stroke" stroke-opacity="1" fill-opacity="0.88" data-shape-part="outline"></path></g></g><g transform="translate(1528.8115005493164, 1873.901416015625) rotate(0)"><text transform="translate(0, -4)" style="font-size: 118px; font-family: &quot;Source Code Pro&quot;; fill: rgb(255, 255, 255); opacity: 1; stroke-width: 0; font-style: normal; font-weight: normal; text-decoration: none;"><tspan dominant-baseline="text-before-edge" x="2.3984375" y="0">Subscribe</tspan></text></g></g><defs><style>@import url("https://fonts.googleapis.com/css2?family=Source+Code+Pro&amp;display=swap");text {white-space: pre;};
</style></defs></svg>